<?xml version="1.0" encoding="utf-8"?>
<!-- Generator: Adobe Illustrator 26.0.1, SVG Export Plug-In . SVG Version: 6.00 Build 0)  -->
<svg version="1.1" id="Layer_1" xmlns="http://www.w3.org/2000/svg" xmlns:xlink="http://www.w3.org/1999/xlink" x="0px" y="0px"
	 viewBox="0 0 12.3 7" style="enable-background:new 0 0 12.3 7;" xml:space="preserve">
<style type="text/css">
	.st0{fill:none;stroke:#C3E0E5;stroke-width:0.5;stroke-linecap:round;stroke-miterlimit:10;}
</style>
<g>
	<path class="st0" d="M10.5,6.6c0,0,0.1-1.8,1.3-1.5c-0.2-0.5-0.7-0.7-1.2-0.6c0,0-1.2-2.6-4.8-3.3C5.7,0.9,5.9,0.5,6.3,0.3
		c0,0-1.4-0.1-2.1,1c0,0-4.7,2-3.4,4.8l2-1.1c0,0,1,0.8,1.3,0.4L3.7,4.5c0,0,3.7-2.3,6.1,0.6C9.8,5.1,9.7,6.1,10.5,6.6z"/>
	<line class="st0" x1="0.4" y1="6.5" x2="0.8" y2="6.2"/>
</g>
<g>
</g>
<g>
</g>
<g>
</g>
<g>
</g>
<g>
</g>
<g>
</g>
</svg>
